<?xml version="1.0" encoding="UTF-8" standalone="no"?>
<!DOCTYPE svg PUBLIC "-//W3C//DTD SVG 1.1//EN" "http://www.w3.org/Graphics/SVG/1.1/DTD/svg11.dtd">
<svg width="100%" height="100%" viewBox="0 0 1024 1024" version="1.1" xmlns="http://www.w3.org/2000/svg" xmlns:xlink="http://www.w3.org/1999/xlink" xml:space="preserve" xmlns:serif="http://www.serif.com/" style="fill-rule:evenodd;clip-rule:evenodd;stroke-linejoin:round;stroke-miterlimit:2;">
    <path d="M122.109,0L122.109,581.079L290.379,746.19L290.379,597.271L237.722,544.058L237.722,403.841L325.766,539.328L325.766,1024L0,1024L0,0L122.109,0ZM907.564,0L808.574,233.062L641.219,405.694L534.801,118.568L534.801,729.161L625.902,817.901L703.908,1024L325.766,1024L403.771,817.901L494.872,729.161L494.872,118.568L388.454,405.694L221.099,233.062L122.109,0L907.564,0ZM907.564,0L1024,0L1024,1024L703.908,1024L703.908,539.328L791.952,403.841L791.952,544.058L739.294,597.271L739.294,746.19L907.564,581.079L907.564,0Z"/>
</svg>
