{
    "asset" : {
        "copyright" : "Ken-Jung Lee",
        "generator" : "Khronos glTF Blender I/O v1.1.45",
        "version" : "2.0"
    },
    "extensionsUsed" : [
        "KHR_lights_punctual"
    ],
    "extensionsRequired" : [
        "KHR_lights_punctual"
    ],
    "extensions" : {
        "KHR_lights_punctual" : {
            "lights" : [
                {
                    "color" : [
                        1,
                        0.7976183891296387,
                        0.5765127539634705
                    ],
                    "intensity" : 5000,
                    "spot" : {
                        "innerConeAngle" : 0,
                        "outerConeAngle" : 0.4031710624694824
                    },
                    "type" : "spot",
                    "name" : "Spot"
                }
            ]
        }
    },
    "scene" : 0,
    "scenes" : [
        {
            "name" : "Scene",
            "nodes" : [
                1,
                3,
                4,
                5,
                6
            ]
        }
    ],
    "nodes" : [
        {
            "camera" : 0,
            "name" : "Camera_Orientation",
            "rotation" : [
                -0.7071067690849304,
                0,
                0,
                0.7071067690849304
            ]
        },
        {
            "children" : [
                0
            ],
            "name" : "Camera",
            "rotation" : [
                0.5772934556007385,
                0.29877567291259766,
                -0.23912279307842255,
                0.7213082909584045
            ],
            "translation" : [
                10.207500457763672,
                5.084489822387695,
                10.207500457763672
            ]
        },
        {
            "extensions" : {
                "KHR_lights_punctual" : {
                    "light" : 0
                }
            },
            "name" : "Spot_Orientation",
            "rotation" : [
                -0.7071067690849304,
                0,
                0,
                0.7071067690849304
            ]
        },
        {
            "children" : [
                2
            ],
            "name" : "Spot",
            "rotation" : [
                0.48783671855926514,
                0.02322210930287838,
                -0.2273557186126709,
                0.842487633228302
            ],
            "translation" : [
                4.965935707092285,
                3.5777416229248047,
                5.03046989440918
            ]
        },
        {
            "mesh" : 0,
            "name" : "Text.004",
            "rotation" : [
                0.5,
                0.5,
                -0.5,
                0.4999999701976776
            ],
            "scale" : [
                1.4949339628219604,
                1.4949339628219604,
                1.49493408203125
            ],
            "translation" : [
                -1.594223976135254,
                2.752361297607422,
                2.829883098602295
            ]
        },
        {
            "mesh" : 1,
            "name" : "Puppet",
            "scale" : [
                0.3421480357646942,
                0.3421480357646942,
                0.3421480357646942
            ],
            "translation" : [
                1.6801728010177612,
                -1.6966204643249512,
                -1.4165784120559692
            ]
        },
        {
            "mesh" : 2,
            "name" : "Floor"
        }
    ],
    "cameras" : [
        {
            "name" : "Camera",
            "perspective" : {
                "yfov" : 0.39959648408210363,
                "zfar" : 100,
                "znear" : 0.10000000149011612
            },
            "type" : "perspective"
        }
    ],
    "animations" : [
        {
            "channels" : [
                {
                    "sampler" : 0,
                    "target" : {
                        "node" : 5,
                        "path" : "translation"
                    }
                }
            ],
            "name" : "BodyAction",
            "samplers" : [
                {
                    "input" : 18,
                    "interpolation" : "LINEAR",
                    "output" : 19
                }
            ]
        },
        {
            "channels" : [
                {
                    "sampler" : 0,
                    "target" : {
                        "node" : 6,
                        "path" : "weights"
                    }
                }
            ],
            "name" : "HoleAction",
            "samplers" : [
                {
                    "input" : 20,
                    "interpolation" : "LINEAR",
                    "output" : 21
                }
            ]
        }
    ],
    "materials" : [
        {
            "doubleSided" : true,
            "emissiveFactor" : [
                0,
                0,
                0
            ],
            "name" : "SignMat.Box",
            "pbrMetallicRoughness" : {
                "baseColorFactor" : [
                    0.7691057324409485,
                    0.7574895620346069,
                    0.7808259129524231,
                    1
                ],
                "metallicFactor" : 1,
                "roughnessFactor" : 0.3145161271095276
            }
        },
        {
            "doubleSided" : true,
            "emissiveFactor" : [
                1,
                0.6785399913787842,
                0.08157969266176224
            ],
            "name" : "SignMat.Bulb",
            "pbrMetallicRoughness" : {}
        },
        {
            "doubleSided" : true,
            "emissiveFactor" : [
                0,
                0,
                0
            ],
            "name" : "PuppetMat.Leg",
            "pbrMetallicRoughness" : {
                "baseColorTexture" : {
                    "index" : 0,
                    "texCoord" : 0
                },
                "metallicFactor" : 0,
                "roughnessFactor" : 0.5
            }
        },
        {
            "doubleSided" : true,
            "emissiveFactor" : [
                0,
                0,
                0
            ],
            "name" : "FloorMat.Hole",
            "pbrMetallicRoughness" : {
                "baseColorTexture" : {
                    "index" : 1,
                    "texCoord" : 0
                },
                "metallicFactor" : 0,
                "roughnessFactor" : 1
            }
        }
    ],
    "meshes" : [
        {
            "name" : "Text.004",
            "primitives" : [
                {
                    "attributes" : {
                        "POSITION" : 0,
                        "NORMAL" : 1,
                        "TEXCOORD_0" : 2
                    },
                    "indices" : 3,
                    "material" : 0
                },
                {
                    "attributes" : {
                        "POSITION" : 4,
                        "NORMAL" : 5,
                        "TEXCOORD_0" : 6
                    },
                    "indices" : 7,
                    "material" : 1
                }
            ]
        },
        {
            "name" : "Cylinder.001",
            "primitives" : [
                {
                    "attributes" : {
                        "POSITION" : 8,
                        "NORMAL" : 9,
                        "TEXCOORD_0" : 10
                    },
                    "indices" : 11,
                    "material" : 2
                }
            ]
        },
        {
            "extras" : {
                "targetNames" : [
                    "Expand"
                ]
            },
            "name" : "Grid.003",
            "primitives" : [
                {
                    "attributes" : {
                        "POSITION" : 12,
                        "NORMAL" : 13,
                        "TEXCOORD_0" : 14
                    },
                    "indices" : 15,
                    "material" : 3,
                    "targets" : [
                        {
                            "POSITION" : 16,
                            "NORMAL" : 17
                        }
                    ]
                }
            ],
            "weights" : [
                0
            ]
        }
    ],
    "textures" : [
        {
            "source" : 0
        },
        {
            "source" : 1
        }
    ],
    "images" : [
        {
            "bufferView" : 12,
            "mimeType" : "image/png",
            "name" : "PuppetMat.Leg.Base"
        },
        {
            "bufferView" : 17,
            "mimeType" : "image/png",
            "name" : "FloorMat.Hole.Base"
        }
    ],
    "accessors" : [
        {
            "bufferView" : 0,
            "componentType" : 5126,
            "count" : 4770,
            "max" : [
                1.672889232635498,
                0.12822990119457245,
                1.2000000476837158
            ],
            "min" : [
                0.049788132309913635,
                -4.470348358154297e-08,
                -0.5144774317741394
            ],
            "type" : "VEC3"
        },
        {
            "bufferView" : 1,
            "componentType" : 5126,
            "count" : 4770,
            "type" : "VEC3"
        },
        {
            "bufferView" : 2,
            "componentType" : 5126,
            "count" : 4770,
            "type" : "VEC2"
        },
        {
            "bufferView" : 3,
            "componentType" : 5123,
            "count" : 7974,
            "type" : "SCALAR"
        },
        {
            "bufferView" : 4,
            "componentType" : 5126,
            "count" : 5100,
            "max" : [
                1.6354049444198608,
                0.12354998290538788,
                1.1641528606414795
            ],
            "min" : [
                0.08394700288772583,
                0.07138317823410034,
                -0.5033904910087585
            ],
            "type" : "VEC3"
        },
        {
            "bufferView" : 5,
            "componentType" : 5126,
            "count" : 5100,
            "type" : "VEC3"
        },
        {
            "bufferView" : 6,
            "componentType" : 5126,
            "count" : 5100,
            "type" : "VEC2"
        },
        {
            "bufferView" : 7,
            "componentType" : 5123,
            "count" : 5100,
            "type" : "SCALAR"
        },
        {
            "bufferView" : 8,
            "componentType" : 5126,
            "count" : 9662,
            "max" : [
                0.8957120776176453,
                3.5125203132629395,
                0.891838788986206
            ],
            "min" : [
                -0.8957121968269348,
                -0.0006079673767089844,
                -0.8995853662490845
            ],
            "type" : "VEC3"
        },
        {
            "bufferView" : 9,
            "componentType" : 5126,
            "count" : 9662,
            "type" : "VEC3"
        },
        {
            "bufferView" : 10,
            "componentType" : 5126,
            "count" : 9662,
            "type" : "VEC2"
        },
        {
            "bufferView" : 11,
            "componentType" : 5123,
            "count" : 22272,
            "type" : "SCALAR"
        },
        {
            "bufferView" : 13,
            "componentType" : 5126,
            "count" : 542,
            "max" : [
                102.46436309814453,
                0,
                103.99182891845703
            ],
            "min" : [
                -103.99182891845703,
                -7.258350372314453,
                -102.46436309814453
            ],
            "type" : "VEC3"
        },
        {
            "bufferView" : 14,
            "componentType" : 5126,
            "count" : 542,
            "type" : "VEC3"
        },
        {
            "bufferView" : 15,
            "componentType" : 5126,
            "count" : 542,
            "type" : "VEC2"
        },
        {
            "bufferView" : 16,
            "componentType" : 5123,
            "count" : 2226,
            "type" : "SCALAR"
        },
        {
            "bufferView" : 18,
            "componentType" : 5126,
            "count" : 542,
            "max" : [
                0.20770984888076782,
                0,
                0.20770978927612305
            ],
            "min" : [
                -0.20770978927612305,
                -0.33230501413345337,
                -0.20770984888076782
            ],
            "type" : "VEC3"
        },
        {
            "bufferView" : 19,
            "componentType" : 5126,
            "count" : 542,
            "type" : "VEC3"
        },
        {
            "bufferView" : 20,
            "componentType" : 5126,
            "count" : 28,
            "max" : [
                2.1666666666666665
            ],
            "min" : [
                1.2666666666666666
            ],
            "type" : "SCALAR"
        },
        {
            "bufferView" : 21,
            "componentType" : 5126,
            "count" : 28,
            "type" : "VEC3"
        },
        {
            "bufferView" : 22,
            "componentType" : 5126,
            "count" : 53,
            "max" : [
                1.7666666666666666
            ],
            "min" : [
                0.03333333333333333
            ],
            "type" : "SCALAR"
        },
        {
            "bufferView" : 23,
            "componentType" : 5126,
            "count" : 53,
            "type" : "SCALAR"
        }
    ],
    "bufferViews" : [
        {
            "buffer" : 0,
            "byteLength" : 57240,
            "byteOffset" : 0
        },
        {
            "buffer" : 0,
            "byteLength" : 57240,
            "byteOffset" : 57240
        },
        {
            "buffer" : 0,
            "byteLength" : 38160,
            "byteOffset" : 114480
        },
        {
            "buffer" : 0,
            "byteLength" : 15948,
            "byteOffset" : 152640
        },
        {
            "buffer" : 0,
            "byteLength" : 61200,
            "byteOffset" : 168588
        },
        {
            "buffer" : 0,
            "byteLength" : 61200,
            "byteOffset" : 229788
        },
        {
            "buffer" : 0,
            "byteLength" : 40800,
            "byteOffset" : 290988
        },
        {
            "buffer" : 0,
            "byteLength" : 10200,
            "byteOffset" : 331788
        },
        {
            "buffer" : 0,
            "byteLength" : 115944,
            "byteOffset" : 341988
        },
        {
            "buffer" : 0,
            "byteLength" : 115944,
            "byteOffset" : 457932
        },
        {
            "buffer" : 0,
            "byteLength" : 77296,
            "byteOffset" : 573876
        },
        {
            "buffer" : 0,
            "byteLength" : 44544,
            "byteOffset" : 651172
        },
        {
            "buffer" : 0,
            "byteLength" : 86986,
            "byteOffset" : 695716
        },
        {
            "buffer" : 0,
            "byteLength" : 6504,
            "byteOffset" : 782704
        },
        {
            "buffer" : 0,
            "byteLength" : 6504,
            "byteOffset" : 789208
        },
        {
            "buffer" : 0,
            "byteLength" : 4336,
            "byteOffset" : 795712
        },
        {
            "buffer" : 0,
            "byteLength" : 4452,
            "byteOffset" : 800048
        },
        {
            "buffer" : 0,
            "byteLength" : 212696,
            "byteOffset" : 804500
        },
        {
            "buffer" : 0,
            "byteLength" : 6504,
            "byteOffset" : 1017196
        },
        {
            "buffer" : 0,
            "byteLength" : 6504,
            "byteOffset" : 1023700
        },
        {
            "buffer" : 0,
            "byteLength" : 112,
            "byteOffset" : 1030204
        },
        {
            "buffer" : 0,
            "byteLength" : 336,
            "byteOffset" : 1030316
        },
        {
            "buffer" : 0,
            "byteLength" : 212,
            "byteOffset" : 1030652
        },
        {
            "buffer" : 0,
            "byteLength" : 212,
            "byteOffset" : 1030864
        }
    ],
    "buffers" : [
        {
            "byteLength" : 1031076,
            "uri" : "data:application/octet-stream;base64,"
        }
    ]
}
